<svg xmlns="http://www.w3.org/2000/svg" width="480" height="300" viewBox="0 0 480 300" role="img" aria-labelledby="t" fill="none">
<title id="t">Chart converting decimal odds to implied probability, and a 1X2 market showing the bookmaker margin</title>
<defs>
  <linearGradient id="acad-panel" x1="0" y1="0" x2="0" y2="1">
    <stop offset="0" stop-color="#131D38"/><stop offset="1" stop-color="#0F1830"/>
  </linearGradient>
  <linearGradient id="acad-ind" x1="0" y1="0" x2="1" y2="0">
    <stop offset="0" stop-color="#3D2DFF"/><stop offset="1" stop-color="#7B70FF"/>
  </linearGradient>
  <radialGradient id="acad-glow" cx="0.5" cy="0.5" r="0.5">
    <stop offset="0" stop-color="#3D2DFF" stop-opacity="0.35"/><stop offset="1" stop-color="#3D2DFF" stop-opacity="0"/>
  </radialGradient>
</defs>
<clipPath id="acad-clip"><rect x="0.5" y="0.5" width="479" height="299" rx="16"/></clipPath>
<rect x="0.5" y="0.5" width="479" height="299" rx="16" fill="url(#acad-panel)"/><rect x="1" y="1" width="478" height="298" rx="15.5" stroke="rgba(255,255,255,0.12)"/>
<g clip-path="url(#acad-clip)"><circle cx="420" cy="30" r="190" fill="url(#acad-glow)" opacity="0.55"/></g>
<text x="22" y="32" font-family="ui-monospace, 'SF Mono', 'JetBrains Mono', Menlo, Consolas, 'DejaVu Sans Mono', monospace" font-size="10" font-weight="600" fill="#8391AB" text-anchor="start" letter-spacing="1.2">ODDS → PROBABILITY</text>
<line x1="58" y1="248" x2="308" y2="248" stroke="rgba(255,255,255,0.06)"/>
<text x="50" y="252" font-family="ui-monospace, 'SF Mono', 'JetBrains Mono', Menlo, Consolas, 'DejaVu Sans Mono', monospace" font-size="9" font-weight="500" fill="#8391AB" text-anchor="end">0%</text>
<line x1="58" y1="200.5" x2="308" y2="200.5" stroke="rgba(255,255,255,0.06)"/>
<text x="50" y="204.5" font-family="ui-monospace, 'SF Mono', 'JetBrains Mono', Menlo, Consolas, 'DejaVu Sans Mono', monospace" font-size="9" font-weight="500" fill="#8391AB" text-anchor="end">25%</text>
<line x1="58" y1="153" x2="308" y2="153" stroke="rgba(255,255,255,0.06)"/>
<text x="50" y="157" font-family="ui-monospace, 'SF Mono', 'JetBrains Mono', Menlo, Consolas, 'DejaVu Sans Mono', monospace" font-size="9" font-weight="500" fill="#8391AB" text-anchor="end">50%</text>
<line x1="58" y1="105.5" x2="308" y2="105.5" stroke="rgba(255,255,255,0.06)"/>
<text x="50" y="109.5" font-family="ui-monospace, 'SF Mono', 'JetBrains Mono', Menlo, Consolas, 'DejaVu Sans Mono', monospace" font-size="9" font-weight="500" fill="#8391AB" text-anchor="end">75%</text>
<line x1="58" y1="58" x2="308" y2="58" stroke="rgba(255,255,255,0.06)"/>
<text x="50" y="62" font-family="ui-monospace, 'SF Mono', 'JetBrains Mono', Menlo, Consolas, 'DejaVu Sans Mono', monospace" font-size="9" font-weight="500" fill="#8391AB" text-anchor="end">100%</text>
<text x="58" y="264" font-family="ui-monospace, 'SF Mono', 'JetBrains Mono', Menlo, Consolas, 'DejaVu Sans Mono', monospace" font-size="9" font-weight="500" fill="#8391AB" text-anchor="middle">1.0</text>
<text x="108" y="264" font-family="ui-monospace, 'SF Mono', 'JetBrains Mono', Menlo, Consolas, 'DejaVu Sans Mono', monospace" font-size="9" font-weight="500" fill="#8391AB" text-anchor="middle">2.0</text>
<text x="158" y="264" font-family="ui-monospace, 'SF Mono', 'JetBrains Mono', Menlo, Consolas, 'DejaVu Sans Mono', monospace" font-size="9" font-weight="500" fill="#8391AB" text-anchor="middle">3.0</text>
<text x="208" y="264" font-family="ui-monospace, 'SF Mono', 'JetBrains Mono', Menlo, Consolas, 'DejaVu Sans Mono', monospace" font-size="9" font-weight="500" fill="#8391AB" text-anchor="middle">4.0</text>
<text x="258" y="264" font-family="ui-monospace, 'SF Mono', 'JetBrains Mono', Menlo, Consolas, 'DejaVu Sans Mono', monospace" font-size="9" font-weight="500" fill="#8391AB" text-anchor="middle">5.0</text>
<text x="308" y="264" font-family="ui-monospace, 'SF Mono', 'JetBrains Mono', Menlo, Consolas, 'DejaVu Sans Mono', monospace" font-size="9" font-weight="500" fill="#8391AB" text-anchor="middle">6.0</text>
<text x="183" y="280" font-family="ui-monospace, 'SF Mono', 'JetBrains Mono', Menlo, Consolas, 'DejaVu Sans Mono', monospace" font-size="9" font-weight="600" fill="#8391AB" text-anchor="middle" letter-spacing="1">DECIMAL ODDS</text>
<path d="M58 58 L60.5 67 L63 75.3 L65.5 82.8 L68 89.7 L70.5 96 L73 101.8 L75.5 107.3 L78 112.3 L80.5 117 L83 121.3 L85.5 125.4 L88 129.3 L90.5 132.8 L93 136.2 L95.5 139.4 L98 142.4 L100.5 145.3 L103 148 L105.5 150.6 L108 153 L110.5 155.3 L113 157.5 L115.5 159.6 L118 161.6 L120.5 163.6 L123 165.4 L125.5 167.1 L128 168.8 L130.5 170.4 L133 172 L135.5 173.5 L138 174.9 L140.5 176.3 L143 177.6 L145.5 178.9 L148 180.1 L150.5 181.3 L153 182.5 L155.5 183.6 L158 184.7 L160.5 185.7 L163 186.7 L165.5 187.7 L168 188.6 L170.5 189.5 L173 190.4 L175.5 191.3 L178 192.1 L180.5 192.9 L183 193.7 L185.5 194.5 L188 195.2 L190.5 195.9 L193 196.6 L195.5 197.3 L198 198 L200.5 198.6 L203 199.3 L205.5 199.9 L208 200.5 L210.5 201.1 L213 201.7 L215.5 202.2 L218 202.8 L220.5 203.3 L223 203.8 L225.5 204.3 L228 204.8 L230.5 205.3 L233 205.8 L235.5 206.2 L238 206.7 L240.5 207.1 L243 207.6 L245.5 208 L248 208.4 L250.5 208.8 L253 209.2 L255.5 209.6 L258 210 L260.5 210.4 L263 210.7 L265.5 211.1 L268 211.5 L270.5 211.8 L273 212.2 L275.5 212.5 L278 212.8 L280.5 213.1 L283 213.5 L285.5 213.8 L288 214.1 L290.5 214.4 L293 214.7 L295.5 215 L298 215.2 L300.5 215.5 L303 215.8 L305.5 216.1 L308 216.3 L308 248 L58 248 Z" fill="rgba(61,45,255,0.10)"/>
<path d="M58 58 L60.5 67 L63 75.3 L65.5 82.8 L68 89.7 L70.5 96 L73 101.8 L75.5 107.3 L78 112.3 L80.5 117 L83 121.3 L85.5 125.4 L88 129.3 L90.5 132.8 L93 136.2 L95.5 139.4 L98 142.4 L100.5 145.3 L103 148 L105.5 150.6 L108 153 L110.5 155.3 L113 157.5 L115.5 159.6 L118 161.6 L120.5 163.6 L123 165.4 L125.5 167.1 L128 168.8 L130.5 170.4 L133 172 L135.5 173.5 L138 174.9 L140.5 176.3 L143 177.6 L145.5 178.9 L148 180.1 L150.5 181.3 L153 182.5 L155.5 183.6 L158 184.7 L160.5 185.7 L163 186.7 L165.5 187.7 L168 188.6 L170.5 189.5 L173 190.4 L175.5 191.3 L178 192.1 L180.5 192.9 L183 193.7 L185.5 194.5 L188 195.2 L190.5 195.9 L193 196.6 L195.5 197.3 L198 198 L200.5 198.6 L203 199.3 L205.5 199.9 L208 200.5 L210.5 201.1 L213 201.7 L215.5 202.2 L218 202.8 L220.5 203.3 L223 203.8 L225.5 204.3 L228 204.8 L230.5 205.3 L233 205.8 L235.5 206.2 L238 206.7 L240.5 207.1 L243 207.6 L245.5 208 L248 208.4 L250.5 208.8 L253 209.2 L255.5 209.6 L258 210 L260.5 210.4 L263 210.7 L265.5 211.1 L268 211.5 L270.5 211.8 L273 212.2 L275.5 212.5 L278 212.8 L280.5 213.1 L283 213.5 L285.5 213.8 L288 214.1 L290.5 214.4 L293 214.7 L295.5 215 L298 215.2 L300.5 215.5 L303 215.8 L305.5 216.1 L308 216.3" stroke="url(#acad-ind)" stroke-width="2.5"/>
<line x1="113" y1="157.5" x2="113" y2="248" stroke="#7B70FF" stroke-dasharray="3 3"/>
<line x1="58" y1="157.5" x2="113" y2="157.5" stroke="#7B70FF" stroke-dasharray="3 3"/>
<circle cx="113" cy="157.5" r="5.5" fill="#7B70FF" stroke="#0B1120" stroke-width="2"/>
<rect x="123" y="127.5" width="92" height="22" rx="6" fill="#0B1120" stroke="rgba(123,112,255,0.5)"/>
<text x="169" y="142.5" font-family="ui-monospace, 'SF Mono', 'JetBrains Mono', Menlo, Consolas, 'DejaVu Sans Mono', monospace" font-size="10" font-weight="600" fill="#E2E8F0" text-anchor="middle">2.10 → 47.6%</text>
<text x="380" y="50" font-family="ui-monospace, 'SF Mono', 'JetBrains Mono', Menlo, Consolas, 'DejaVu Sans Mono', monospace" font-size="9" font-weight="500" fill="#8391AB" text-anchor="start"></text>
<rect x="340" y="165.7" width="26" height="80.8" rx="3" fill="#3D2DFF"/>
<text x="376" y="210.9" font-family="ui-monospace, 'SF Mono', 'JetBrains Mono', Menlo, Consolas, 'DejaVu Sans Mono', monospace" font-size="10" font-weight="600" fill="#E2E8F0" text-anchor="start">H 2.10</text>
<text x="376" y="223.9" font-family="ui-monospace, 'SF Mono', 'JetBrains Mono', Menlo, Consolas, 'DejaVu Sans Mono', monospace" font-size="9" font-weight="500" fill="#8391AB" text-anchor="start">47.6%</text>
<rect x="340" y="116.4" width="26" height="47.9" rx="3" fill="#7B70FF"/>
<text x="376" y="145.1" font-family="ui-monospace, 'SF Mono', 'JetBrains Mono', Menlo, Consolas, 'DejaVu Sans Mono', monospace" font-size="10" font-weight="600" fill="#E2E8F0" text-anchor="start">D 3.50</text>
<text x="376" y="158.1" font-family="ui-monospace, 'SF Mono', 'JetBrains Mono', Menlo, Consolas, 'DejaVu Sans Mono', monospace" font-size="9" font-weight="500" fill="#8391AB" text-anchor="start">28.6%</text>
<rect x="340" y="65.6" width="26" height="49.3" rx="3" fill="#A5A0FF"/>
<text x="376" y="95" font-family="ui-monospace, 'SF Mono', 'JetBrains Mono', Menlo, Consolas, 'DejaVu Sans Mono', monospace" font-size="10" font-weight="600" fill="#E2E8F0" text-anchor="start">A 3.40</text>
<text x="376" y="108" font-family="ui-monospace, 'SF Mono', 'JetBrains Mono', Menlo, Consolas, 'DejaVu Sans Mono', monospace" font-size="9" font-weight="500" fill="#8391AB" text-anchor="start">29.4%</text>
<line x1="332" y1="75.3" x2="374" y2="75.3" stroke="#FBBF24" stroke-width="1.5"/>
<text x="328" y="79.3" font-family="ui-monospace, 'SF Mono', 'JetBrains Mono', Menlo, Consolas, 'DejaVu Sans Mono', monospace" font-size="9" font-weight="600" fill="#FBBF24" text-anchor="end">100%</text>
<text x="336" y="264" font-family="ui-monospace, 'SF Mono', 'JetBrains Mono', Menlo, Consolas, 'DejaVu Sans Mono', monospace" font-size="9" font-weight="600" fill="#8391AB" text-anchor="start">BOOK 105.6%</text>
<text x="336" y="280" font-family="ui-monospace, 'SF Mono', 'JetBrains Mono', Menlo, Consolas, 'DejaVu Sans Mono', monospace" font-size="9" font-weight="600" fill="#FBBF24" text-anchor="start">MARGIN 5.6%</text>
</svg>
